<?xml version="1.0"?>
<svg xmlns="http://www.w3.org/2000/svg" width="614" height="147" viewBox="0 0 614 147" fill="none">
<g clip-path="url(#clip0_935_3316)">
<rect width="147" height="147" rx="73.5" fill="url(#paint0_radial_935_3316)"/>
<path d="M123.481 50.557C123.173 52.3563 122.813 53.2287 122.391 54.2384L122.39 54.2406C121.935 55.3352 121.419 56.5774 120.951 59.0419C120.765 60.0283 120.672 60.7519 120.591 61.3898L120.586 61.4292L120.581 61.4664C120.451 62.4881 120.364 63.1762 119.949 64.4007C119.612 65.4008 119.049 67.0695 117.692 68.867C116.597 70.3215 114.763 72.7559 112.316 73.048C112.104 73.062 111.659 73.0844 111.478 72.9919C104.536 69.4468 98.5714 66.8274 96.5069 66.2395C94.1051 65.5593 94.4126 60.3235 94.6844 55.7044C94.8064 53.6399 94.9217 51.6877 94.8247 50.0161C94.4875 44.1846 93.4547 37.8017 88.3764 34.69C85.3445 32.8329 81.4334 32.2882 77.6963 32.2805C78.389 31.951 79.1614 31.5033 80.0029 31.0133L80.0286 30.9985C82.229 29.7242 84.9602 28.1426 87.6742 27.8642C88.5619 27.7767 89.4342 27.6739 90.294 27.5788C95.7652 26.9592 100.492 26.4269 105.478 28.1341C107.738 28.9094 112.374 31.4956 113.571 33.8974C114.413 35.5921 115.835 36.914 118.672 39.5511C120.149 40.925 121.122 41.7239 121.834 42.3085L121.867 42.3352C122.867 43.1576 123.064 43.3296 123.361 43.9377C124.281 45.8111 123.946 47.8007 123.481 50.557Z" fill="white"/>
<path d="M98.0851 74.4815C98.4849 74.6179 98.6349 75.1037 98.4051 75.4581C97.6831 76.5714 96.8589 78.0701 95.8781 79.8883C95.4007 80.7779 94.9482 81.6175 94.5687 82.2727C93.2237 84.5823 93.1142 86.5267 93.0287 88.0869C92.9365 89.7191 92.8538 90.4685 91.8787 91.1189C91.0736 91.6588 90.2494 91.8385 84.5332 92.7089C83.536 92.8635 83.0931 93.0566 82.704 93.2267C82.6415 93.2536 82.5795 93.2804 82.5145 93.3072C82.1184 93.47 81.7245 93.1288 81.7464 92.7011C81.7872 91.904 81.8128 90.9226 81.8163 89.7076V89.4598C81.8461 88.3396 81.799 87.4307 81.7587 86.6977C81.6837 85.2384 81.6741 84.6236 82.0632 83.9885C82.5407 83.2209 82.9134 82.9865 83.5254 82.5984C84.3804 82.0614 85.5525 81.3216 87.2875 78.9372C88.2098 77.6748 88.4144 76.9898 88.5422 76.398C88.5969 76.153 88.6171 76.0608 89.3271 75.5228C90.0774 74.9531 92.3639 73.221 95.2911 73.7128C96.0658 73.8441 97.0435 74.1263 98.0851 74.4815Z" fill="white"/>
<path d="M75.4845 100.882C75.3597 101.044 75.2146 101.119 75.0042 101.13C74.4066 101.154 73.9868 101.007 73.7092 100.672C73.1193 99.9546 73.199 98.5126 73.3364 97.67L75.7535 97.0254C75.9428 98.305 76.0321 100.169 75.4845 100.882Z" fill="white"/>
<path d="M75.6797 92.1612C75.6393 92.5137 75.5951 92.9105 75.5971 93.3255C75.5999 93.4802 75.6019 93.6358 75.6067 93.7876C75.6115 94.1825 75.6268 94.8098 75.5721 95.0952C74.817 95.3699 74.1723 95.3699 73.325 95.3555C73.3125 95.1105 73.3279 94.7455 73.3375 94.4986C73.3423 94.3083 73.3529 94.1191 73.3548 93.9385C73.3577 93.7386 73.3548 93.5407 73.3548 93.3438C73.3519 92.8788 73.3452 92.117 73.4595 91.8922C73.6872 91.8595 73.9197 91.8095 74.1694 91.7519C74.669 91.6443 75.3213 91.5069 75.7364 91.5694C75.7296 91.7308 75.7047 91.9709 75.6797 92.1612Z" fill="white"/>
<path d="M71.2076 100.137C71.0904 101.376 70.708 102.908 69.5456 103.141C69.023 103.248 68.7703 103.091 68.6108 102.941C67.8259 102.214 67.701 100.017 67.8105 98.4448C68.3332 98.4544 69.0182 98.3372 69.83 98.1797C70.3247 98.0817 70.8176 97.9721 71.2095 97.8818C71.2547 98.464 71.2873 99.2941 71.2076 100.137Z" fill="white"/>
<path d="M70.6589 95.6903L68.0371 96.6097C68.1697 95.5923 68.3474 94.1599 68.4099 93.2078C68.455 92.5382 68.6376 92.3326 68.6894 92.2884C68.7067 92.2731 68.7423 92.2414 68.8393 92.2414C68.8547 92.2414 68.8691 92.2442 68.8864 92.2442L68.9411 92.2519L70.5984 92.1616C70.6685 92.9408 70.6685 94.6508 70.6589 95.6903Z" fill="white"/>
<path d="M66.422 94.8747C66.2741 95.2696 66.0992 96.3869 65.9897 97.1737L62.7051 97.0738C62.8905 96.0564 63.147 95.0217 63.4295 94.1965C63.7148 93.377 64.0222 92.7621 64.3047 92.5892C64.6342 92.3913 65.3595 92.3471 65.8043 92.7266C66.5268 93.3424 66.7266 94.0475 66.422 94.8747Z" fill="white"/>
<path d="M65.1961 104.928C64.9415 105.276 64.659 105.453 64.3084 105.49C63.951 105.53 63.6734 105.45 63.4514 105.242C62.4196 104.29 62.5042 101.171 62.5416 99.671C63.9039 99.3607 65.3738 99.0965 66.0713 99.0562C66.176 100.312 66.2058 103.553 65.1961 104.928Z" fill="white"/>
<path d="M60.9095 96.9862C60.7491 97.4137 60.5944 97.8182 60.4772 98.1756C60.0948 98.2957 58.9276 98.1909 57.7354 97.9277L58.5548 92.7591C59.9017 92.4017 61.4638 92.2865 61.8414 92.6871C62.339 93.2155 61.3399 95.8593 60.9095 96.9862Z" fill="white"/>
<path d="M59.4219 105.718C58.785 106.503 57.83 106.87 56.4975 106.856C55.5753 106.84 55.2457 106.49 55.0805 106.228C54.3408 105.056 55.0651 102.294 55.7905 100.529L60.2395 100.796C60.2846 101.107 60.3221 101.483 60.3394 101.894C60.3884 103.149 60.2308 104.713 59.4219 105.718Z" fill="white"/>
<path d="M96.1884 68.2029C92.1832 67.0683 92.5281 61.2118 92.8614 55.5514C92.9796 53.5483 93.091 51.6547 92.9998 50.1061C92.6923 44.8078 91.8018 39.0378 87.5401 36.4257C82.9568 33.6227 75.4585 34.2616 70.8322 34.8503C70.8279 34.8508 70.824 34.8535 70.8197 34.8539C70.8179 34.854 70.8162 34.8542 70.8144 34.8548C69.1198 35.3683 67.5347 35.7013 66.3056 35.636C63.5763 35.4947 61.4522 34.3457 59.5817 33.337C58.1224 32.5463 56.8494 31.8633 55.6505 31.8633C55.5871 31.8633 55.5208 31.8633 55.4554 31.8662C51.8691 32.0987 50.2206 32.9748 48.7228 34.3112C48.3462 34.6445 47.887 35.61 46.3835 39.9428C45.6246 42.1322 45.4843 43.3302 45.3431 44.4946C45.2163 45.5581 45.0875 46.6524 44.5217 48.2846C44.1278 49.4105 43.8377 50.3818 43.5562 51.3185C42.8145 53.8067 42.2285 55.7666 40.4675 58.0972C40.2609 58.373 40.0044 58.7784 39.7085 59.2405C39.3089 59.8697 38.8151 60.6517 38.1628 61.5567C37.7026 62.1946 36.6458 64.582 36.7035 65.3092C36.7899 66.4669 37.1665 67.1855 37.5969 68.0242C38.0254 68.8514 38.5134 69.788 38.6028 71.0812L38.6172 71.2906C38.7747 73.3417 38.4817 74.3706 34.5803 77.856C32.0859 80.0879 30.3137 82.2387 29.1185 83.8164C29.013 83.9556 29.1502 84.1625 29.3243 84.1487C29.3646 84.1429 29.405 84.14 29.4425 84.14C29.5174 84.1342 29.5923 84.1314 29.6663 84.1314C29.7412 84.1314 29.8162 84.1342 29.8901 84.1371C29.9651 84.14 30.0371 84.1458 30.1111 84.1573C31.0546 84.2648 31.9743 84.6638 32.6383 85.3515C32.7537 85.4711 32.9331 85.5035 33.0874 85.4418C33.7224 85.1776 34.4208 85.2208 35.0876 85.2832C35.8809 85.3569 36.6821 85.5884 37.2286 86.0806C37.4367 86.268 37.7223 86.3673 37.9966 86.3111C38.6176 86.1837 39.2647 86.2049 39.8661 86.4236C40.3121 86.5898 40.6947 86.8423 41.0081 87.1587C41.3035 87.4569 41.8035 87.5163 42.1683 87.3085C42.3141 87.2254 42.4712 87.1539 42.6416 87.0961C43.4889 86.8088 44.4256 86.9722 45.248 87.2681C45.6534 87.4141 46.078 87.5438 46.4431 87.7878C47.046 88.1891 47.438 88.7578 47.7011 89.3984C47.9032 89.8903 48.5759 90.0584 49.0076 89.7477C49.5262 89.3745 49.9542 89.3265 50.3858 89.518C50.5644 89.5986 50.7037 89.7008 50.8105 89.824C51.1198 90.1805 51.6166 90.536 52.0759 90.4273C53.3552 90.1248 54.904 90.3254 56.0405 90.9341C56.4601 91.1549 56.8729 91.4909 57.1745 91.9995C57.1749 92.0001 57.175 92.0002 57.1752 92.0009C57.1755 92.0029 57.1782 92.0019 57.1785 92L57.213 91.7739C57.2286 91.6716 57.3013 91.5871 57.4001 91.5565L57.6756 91.4711C58.3251 91.2646 61.6347 90.3106 62.922 91.6662C62.9778 91.7219 63.0748 91.7274 63.1281 91.6692C63.3036 91.4774 63.4459 91.3717 63.5369 91.3193C64.3756 90.8111 65.8128 90.7794 66.7697 91.598C66.9621 91.7596 67.2743 91.7009 67.4193 91.4956C67.5087 91.369 67.6101 91.2577 67.7236 91.1618C68.0599 90.8717 68.4855 90.7333 68.9562 90.7621L70.7748 90.6642C71.2322 90.639 72.6529 90.5425 73.101 90.4476C73.1349 90.4405 73.1697 90.4342 73.2054 90.4288C73.3947 90.4 73.6195 90.351 73.8549 90.302C74.7368 90.1098 75.7369 89.8937 76.5583 90.2731C77.348 90.6382 77.2481 91.5374 77.153 92.33C77.1155 92.6518 77.0751 92.9881 77.078 93.3071C77.0838 93.456 77.0867 93.6058 77.0895 93.7586C77.1011 94.4419 77.1155 95.0734 76.9805 95.5584C76.9802 95.5594 76.98 95.5604 76.98 95.5615C76.98 95.5624 76.9801 95.5632 76.9803 95.564L77.0636 95.9394C77.1505 96.3086 77.5448 96.5167 77.8675 96.3173C78.4816 95.9378 79.1141 95.4589 79.316 95.1753C79.3346 95.1492 79.3489 95.1206 79.36 95.0905C79.3882 95.0142 79.4375 94.8563 79.4923 94.5377C79.6047 93.8623 79.7305 92.4895 79.7421 89.7015C79.7421 89.5545 79.7421 89.4489 79.7449 89.3999C79.768 88.3652 79.7276 87.5351 79.6873 86.8021C79.6124 85.2909 79.5518 84.1016 80.3022 82.8911C81.0323 81.7133 81.7413 81.2675 82.4224 80.8361C83.215 80.3395 84.1094 79.7755 85.6148 77.71C86.3536 76.6926 86.4449 76.2824 86.5169 75.9548C86.6803 75.1872 86.9339 74.7251 88.0743 73.8633C89.0023 73.162 91.8268 71.0216 95.6369 71.6624C96.8865 71.8746 98.9119 72.5411 100.911 73.3286C100.912 73.329 100.913 73.3292 100.914 73.3292C100.915 73.3292 100.915 73.3293 100.916 73.3295C100.988 73.3506 101.062 73.3754 101.13 73.41C101.161 73.4261 101.193 73.4424 101.226 73.4555C102.954 74.1456 104.636 74.9134 105.749 75.5385C106.066 75.7166 106.469 75.6104 106.7 75.3298C107.044 74.9128 107.417 74.6584 107.817 74.4186C107.977 74.3206 108.101 74.2467 108.219 74.1458C108.594 73.8273 108.59 73.1596 108.153 72.9347C102.833 70.2019 97.8464 68.6744 96.1884 68.2029ZM58.0215 69.4355C56.7831 74.8577 48.3837 80.8169 44.5659 80.8169H44.4909C44.4304 80.814 44.3641 80.8083 44.293 80.7968C44.221 80.7852 44.1432 80.7679 44.0605 80.7449C44.0202 80.7334 43.9769 80.7189 43.9337 80.7074C43.241 80.4893 42.2813 79.9571 41.555 79.2423C41.0554 78.7514 40.6616 78.1731 40.5376 77.5496C40.5146 77.4401 40.4915 77.3315 40.4685 77.222C40.2619 76.2997 40.0054 75.1478 40.8191 73.2629C40.9315 73.0102 41.0314 72.7739 41.1237 72.5587C41.1525 72.4867 41.1842 72.4146 41.213 72.3464C41.2995 72.1427 41.3763 71.9554 41.4455 71.7863C41.5608 71.4991 41.6549 71.255 41.7327 71.0475C41.7644 70.9668 41.7933 70.889 41.8192 70.8179C42.0517 70.1656 42.0805 69.9216 42.1122 69.6689C42.141 69.471 42.1699 69.2289 42.2506 68.884C42.4888 67.8666 42.6127 67.0049 42.7223 66.2373C42.9173 64.8577 43.0873 63.6655 43.8309 62.5712C43.9577 62.3849 44.098 62.2148 44.2565 62.0659C44.3113 62.014 44.3632 61.965 44.4198 61.916C44.4775 61.867 44.5351 61.8238 44.5918 61.7806C44.7724 61.6538 44.9655 61.5423 45.1749 61.4472C45.247 61.4155 45.3191 61.3838 45.3901 61.3579C45.5371 61.3031 45.6918 61.257 45.8532 61.2166C46.5372 61.0504 47.3442 61.0245 48.2723 61.1417C49.2868 61.2224 50.2263 61.4145 51.0593 61.647C51.7548 61.8392 52.3754 62.064 52.9009 62.2734C52.9557 62.2936 53.0076 62.3138 53.0594 62.3368C53.1603 62.3772 53.2574 62.4175 53.3525 62.4608C53.4966 62.5213 53.6282 62.5789 53.7521 62.6327C53.9154 62.7077 54.0653 62.7739 54.1979 62.8335L54.3218 62.8911C54.9078 63.1582 55.4113 63.4512 55.8417 63.7587C56.054 63.9143 56.2528 64.0719 56.4306 64.2323C56.4911 64.2842 56.5487 64.3389 56.6025 64.3966C56.6602 64.4513 56.7149 64.5061 56.7659 64.5609C58.3798 66.2603 58.3001 68.2259 58.0215 69.4355ZM61.9143 48.885L61.7509 49.8678C61.3744 52.0832 60.5097 55.12 57.3202 55.902C54.2517 56.6523 53.5244 56.8128 51.3407 56.9108C51.2917 56.9165 51.2399 56.9165 51.188 56.9165C49.5932 56.9165 46.5247 55.9107 45.981 53.4109C45.6332 51.8017 46.3432 50.6354 47.5123 48.7015C47.7074 48.3826 47.9178 48.0406 48.1416 47.6582C49.6874 45.0547 50.2965 43.1698 50.7855 41.6586C51.262 40.182 51.6587 38.961 52.679 37.9493C52.9144 37.714 53.1815 37.492 53.4918 37.2797C53.6897 37.1443 53.8972 37.0242 54.1153 36.9118C54.4054 36.7677 54.7099 36.6418 55.0289 36.541C55.7388 36.3142 56.5055 36.1989 57.2731 36.1989C58.7612 36.1989 60.2474 36.6274 61.3071 37.4776C61.7836 37.86 62.4619 38.6238 62.8558 40.8766C63.0585 42.0371 62.7136 44.1699 61.9143 48.885ZM84.6685 55.1892C83.5705 57.0741 82.97 58.1116 82.0218 58.8898C80.1398 60.4356 77.9446 60.8266 76.1375 60.8266C74.8386 60.8266 73.7357 60.6258 73.0863 60.5076C71.2187 60.1656 67.7419 59.5335 66.5842 56.7897C66.3575 56.2469 66.3546 55.902 66.3546 55.4649C66.3546 55.0335 66.3546 54.3073 66.1539 52.5799L66.1423 52.4646C66.0501 51.6826 65.9473 50.7978 66.1711 49.6632L66.1971 49.5278C66.8523 46.1951 67.03 45.6859 67.177 45.3986C67.5161 44.7434 68.3202 44.485 68.9754 44.8213C69.6105 45.1517 69.8747 45.9213 69.5759 46.5678C69.5096 46.7571 69.3232 47.467 68.8169 50.0446L68.791 50.1801C68.6469 50.9073 68.7103 51.4588 68.7939 52.1572L68.8054 52.2754C69.0235 54.1516 69.0235 55.0018 69.0235 55.462C69.0235 55.543 69.0235 55.6323 69.0262 55.6853C69.0273 55.7056 69.0372 55.7329 69.0436 55.7522C69.2381 56.2131 69.6503 56.5744 70.1626 56.8604C70.6032 57.1065 71.0774 56.675 70.9828 56.1792C70.4311 53.2894 70.4878 49.9726 71.5838 47.9051C71.9512 47.2019 72.631 46.0522 73.2767 44.9785C73.2785 44.9755 73.2807 44.9728 73.2823 44.9697C73.2838 44.9666 73.2861 44.9639 73.2878 44.9609C73.3532 44.8529 73.4186 44.7458 73.4831 44.6378C73.5378 44.5455 73.5926 44.4572 73.6435 44.3707C73.9279 43.899 74.195 43.4657 74.4082 43.1208C74.437 43.0718 74.4659 43.0228 74.4947 42.9767C74.5149 42.9421 74.535 42.9104 74.5552 42.8816C74.6013 42.8067 74.6417 42.7375 74.6791 42.6779C74.6964 42.6491 74.7137 42.6232 74.7281 42.5972C74.7368 42.5857 74.7425 42.5742 74.7483 42.5655C74.7685 42.5309 74.7887 42.4992 74.806 42.4733C74.8405 42.4185 74.8665 42.3782 74.8809 42.3523C74.8819 42.3502 74.883 42.3481 74.884 42.3461C74.8872 42.3403 74.8935 42.3319 74.8967 42.3261C74.899 42.3221 74.8995 42.3215 74.9021 42.3178C75.0609 42.0863 75.2185 41.8632 75.3735 41.6492C75.7229 41.1667 75.3144 40.5501 74.7714 40.795C73.8394 41.2155 73.2116 41.6944 73.0738 41.8037C72.4964 42.2639 71.6568 42.1688 71.2004 41.5914C70.7431 41.014 70.8382 40.1724 71.4156 39.7122C72.1025 39.1723 75.7426 36.5169 80.1023 37.7639C83.2429 38.6574 84.8895 41.0572 85.5101 41.9593C86.0097 42.6923 87.542 44.9164 87.493 48.0223C87.4565 50.3905 86.4679 52.0948 84.6685 55.1892Z" fill="white"/>
<path d="M56.3555 38.9468C56.1326 39.4867 55.8655 40.1563 55.5783 40.8836C54.9086 42.5677 54.1487 44.4756 53.7836 45.1673C53.1534 46.3625 52.6635 47.1166 52.2715 47.7247C51.8238 48.4222 51.4664 48.9746 51.1965 49.7441C50.7238 51.091 50.6393 52.5965 50.9467 54.2335C50.1118 54.1413 48.7448 53.5658 48.5901 52.8414C48.4748 52.3015 48.8101 51.7117 49.7977 50.0871C49.9956 49.7624 50.2079 49.4098 50.4404 49.0178C52.138 46.1588 52.8249 44.0318 53.3302 42.4764C53.8749 40.7846 54.1324 40.0746 54.9999 39.4819C55.388 39.2119 55.8607 39.04 56.3555 38.9468Z" fill="white"/>
<path d="M54.6992 98.909C53.774 100.799 52.6221 102.543 51.9045 103.408C51.3098 101.801 50.277 98.1193 50.5499 95.1574C50.5576 95.0719 50.5672 94.9874 50.5797 94.9047C50.6892 93.9901 50.9322 93.1505 51.3646 92.478C51.6499 92.0361 52.4396 91.7661 53.3369 91.7661C53.9988 91.7661 54.7193 91.9112 55.339 92.2436H55.3438C55.6762 92.4213 56.1287 92.7806 56.1758 93.8259C56.244 95.2371 55.5715 97.1345 54.6992 98.909Z" fill="white"/>
<path d="M105.394 77.7277C105.466 77.7855 105.511 77.8726 105.47 77.9552C105.194 78.5105 104.862 78.8998 104.471 79.359C103.999 79.921 103.459 80.5589 102.956 81.5533C102.241 82.9626 102.012 84.248 101.892 87.5394C101.75 91.4062 101.899 93.5784 102.012 95.1626C102.119 96.692 102.185 97.6143 101.912 99.1063C101.362 102.115 100.075 104.108 98.4447 106.63C96.4052 109.784 94.2954 113.043 90.8014 114.083C90.4766 114.183 90.4661 114.183 89.5544 114.186C88.7618 114.186 87.4427 114.188 84.9459 114.281C80.3816 114.446 78.0922 114.528 76.1333 114.905C74.0784 115.303 73.0062 115.74 71.9668 116.16C71.0291 116.539 70.1424 116.9 68.4429 117.249C67.4303 117.454 65.9162 117.677 60.7573 117.684C55.3956 117.694 52.159 117.697 47.8848 117.21C42.0206 116.54 39.077 116.205 37.122 115.161C32.5106 112.701 30.5633 108.277 27.342 100.949C27.3365 100.936 27.3309 100.923 27.3254 100.91C27.2856 100.819 27.3967 100.731 27.4823 100.782C27.6351 100.877 27.7945 100.955 27.9627 101.011C28.1029 101.061 28.2499 101.099 28.3979 101.124C28.6928 101.174 29.0002 101.177 29.3124 101.124C29.3672 101.114 29.4172 101.102 29.4652 101.081C29.4744 101.078 29.4835 101.073 29.4926 101.069C29.5471 101.042 29.6151 101.065 29.6381 101.121C29.8428 101.686 30.1684 102.188 30.7151 102.478C31.2627 102.764 31.8852 102.786 32.4943 102.781C33.1216 102.771 33.7538 102.736 34.3792 102.661C34.7106 102.626 35.0495 102.788 35.1765 103.096C35.7487 104.484 36.4583 105.489 37.5236 105.637C37.5812 105.645 37.6562 105.654 37.7513 105.654C37.959 105.654 38.264 105.602 38.6806 105.356C39.1945 105.053 39.9686 105.244 40.3591 105.695C40.5888 105.961 40.8408 106.166 41.0628 106.344C42.1599 107.471 44.8269 108.011 47.0663 108.011C48.2883 108.011 49.3835 107.851 50.0281 107.536C50.9504 107.089 50.9504 106.402 50.9052 106.124C50.8268 105.626 50.756 105.132 50.6953 104.642C50.688 104.584 50.777 104.561 50.8005 104.615C50.935 104.907 51.0983 105.272 51.5355 105.342C51.5825 105.347 51.6354 105.358 51.6959 105.358C52.3204 105.358 53.2911 105.561 53.4586 106.162C53.5438 106.468 53.6648 106.755 53.8287 107.015C54.2033 107.608 54.9661 108.315 56.4783 108.34H56.5955C58.3324 108.34 59.6726 107.772 60.5766 106.65C60.6353 106.577 60.6913 106.503 60.7449 106.427C61.0699 105.97 62.0347 105.95 62.4481 106.33C62.9131 106.76 63.4982 106.982 64.1505 106.982C64.2552 106.982 64.3609 106.977 64.4704 106.965C65.2476 106.882 65.9201 106.47 66.4225 105.768C66.7512 105.309 66.9911 104.745 67.1664 104.135C67.218 103.955 67.4646 103.902 67.6023 104.028C67.9347 104.335 68.4669 104.66 69.2345 104.66C69.4218 104.66 69.6246 104.64 69.8398 104.595C71.3479 104.292 72.0991 103.043 72.4548 101.634C72.4667 101.587 72.5351 101.574 72.5662 101.611C72.9486 102.076 73.6538 102.613 74.8806 102.613C74.943 102.613 75.0083 102.613 75.0727 102.61C75.7221 102.58 76.2698 102.295 76.6646 101.785C77.1288 101.18 77.3211 100.294 77.3733 99.3931C77.3926 99.0614 77.6057 98.77 77.9103 98.6373C79.1862 98.0811 80.6916 96.9518 81.1405 96.1761C81.1437 96.1707 81.1468 96.1653 81.1499 96.1598C81.2879 95.9169 81.5046 95.7188 81.7787 95.6652C82.7264 95.48 83.1506 95.2967 83.5375 95.128C83.8622 94.9858 84.1226 94.8734 84.8517 94.7601C90.6505 93.8753 91.7822 93.6802 93.0369 92.8435C94.9141 91.5917 95.0092 89.8691 95.1015 88.2023C95.1812 86.7929 95.2715 85.1934 96.3658 83.3162C96.7635 82.6312 97.2227 81.7761 97.7107 80.8721C98.545 79.324 99.7039 77.1709 100.553 75.9889C100.746 75.7204 101.1 75.6364 101.404 75.7661C103.369 76.6042 105.031 77.4357 105.394 77.7277Z" fill="white"/>
<path d="M49.0791 94.975C48.8495 96.98 48.7092 99.6584 49.0339 103.148C49.1261 104.132 49.2539 105.155 49.4134 106.189C49.1386 106.339 48.3182 106.55 46.8589 106.526C44.7617 106.484 42.7202 105.957 42.1072 105.294L42.0121 105.208C41.502 104.798 41.1677 104.528 41.1196 103.796C41.1043 103.549 41.2099 103.304 41.4367 102.958C41.5616 102.763 41.7268 102.539 41.9314 102.261C42.284 101.788 42.7211 101.198 43.1688 100.439C44.4811 98.2212 44.9788 97.5362 45.6109 96.6716C45.6609 96.6015 45.7137 96.5313 45.7685 96.4593C46.1412 95.9491 46.5783 95.3391 47.2355 94.3371C47.7254 93.5925 48.1328 93.0094 48.4681 92.5521C49.0282 91.7903 49.3951 91.3771 49.6305 91.1523C49.5959 91.4972 49.5181 91.9824 49.4432 92.4301C49.3317 93.1179 49.1915 93.9605 49.0791 94.975Z" fill="white"/>
<path d="M48.1186 63.8084C48.1062 63.8257 48.0908 63.843 48.0783 63.8612C47.8055 64.2388 47.4932 64.6663 47.1214 65.4982C46.1213 67.7204 46.1021 68.9779 46.0868 69.9895C46.0771 70.5199 46.0714 70.9416 45.9263 71.4344C45.8264 71.7592 45.664 72.1319 45.4767 72.5613C44.8868 73.9111 44.1173 75.6808 44.4622 78.0623C43.9847 77.8327 43.2546 77.3072 43.1528 77.0277C43.1278 76.898 43.0999 76.7702 43.0701 76.6424C42.9049 75.8998 42.7954 75.4156 43.2681 74.3281C44.5102 71.4633 44.663 70.784 44.76 70.0039C44.7802 69.8339 44.8004 69.7013 44.8503 69.4861C45.1126 68.3563 45.25 67.3889 45.3624 66.6117C45.5295 65.432 45.642 64.6519 46.0397 64.0649C46.1847 63.8478 46.595 63.7354 47.182 63.7354C47.4145 63.7354 47.6767 63.7526 47.9621 63.793L48.0293 63.7978C48.0581 63.8007 48.0889 63.8036 48.1186 63.8084Z" fill="white"/>
<path d="M46.4798 92.0658C46.4126 91.3789 46.2925 90.691 46.0427 90.0435C46.0254 90.0108 45.9505 89.8456 45.9351 89.8139C45.89 89.7313 45.8381 89.6535 45.79 89.5718C45.7872 89.5689 45.7852 89.5689 45.7852 89.567C45.7823 89.5622 45.7804 89.5622 45.7804 89.5593C45.7526 89.5295 45.7276 89.4997 45.7007 89.4719C45.6603 89.4315 45.6161 89.3921 45.5729 89.3566C45.5652 89.347 45.5575 89.3393 45.5508 89.3364C45.5306 89.3191 45.5009 89.2961 45.4682 89.2769C45.4154 89.249 45.3654 89.2192 45.3135 89.1923C45.2981 89.1827 45.2607 89.1673 45.2261 89.1549C45.2261 89.1549 45.2232 89.1549 45.2232 89.152C45.2155 89.1491 45.2078 89.1472 45.2011 89.1443C45.1934 89.1395 45.1886 89.1366 45.1838 89.1347C45.1761 89.1318 45.1713 89.1299 45.1665 89.1299C45.1617 89.1299 45.1617 89.127 45.1617 89.127C45.1464 89.1193 45.1368 89.1174 45.1291 89.1145C44.7294 88.9675 44.324 88.8071 43.8994 88.7446C43.8965 88.7446 43.8898 88.7418 43.884 88.7418H43.8744C43.8273 88.7418 43.7293 88.7321 43.7245 88.7321C43.665 88.7293 43.6073 88.7293 43.5497 88.7321C43.5218 88.7321 43.4949 88.7321 43.4699 88.735H43.4478C43.4382 88.735 43.4257 88.7379 43.4133 88.7379C43.4085 88.7427 43.4008 88.7427 43.3979 88.7427C43.395 88.7427 43.3931 88.7427 43.3931 88.7427C43.298 88.7706 43.198 88.7956 43.1029 88.8253C43.0626 88.8455 43.0184 88.8657 42.9781 88.8907C42.9435 88.9108 42.9079 88.9358 42.8733 88.9531C42.8704 88.956 42.8657 88.9608 42.8608 88.9608L42.8532 88.9685C42.808 89.0136 42.7609 89.0559 42.7158 89.1011C42.7004 89.1164 42.6581 89.1683 42.6284 89.2058C42.6207 89.2106 42.6159 89.2154 42.6159 89.2202C42.613 89.2231 42.613 89.2231 42.6111 89.225C42.6082 89.2279 42.6082 89.2298 42.6034 89.2327C42.6005 89.2356 42.6005 89.2375 42.5986 89.2375C42.5861 89.2596 42.5736 89.2778 42.5688 89.2874C42.4084 89.5372 42.246 89.7851 42.0788 90.032C41.6936 90.6219 41.2987 91.2088 40.8991 91.792C40.534 92.3194 40.169 92.8468 39.8068 93.3743C39.6041 93.6692 39.4042 93.9613 39.2044 94.2562C39.1698 94.3061 39.1372 94.3561 39.1045 94.4061C39.3418 94.4512 39.5791 94.4983 39.8193 94.5434C40.3563 94.6414 40.8914 94.7356 41.4361 94.8105C42.5582 94.9633 43.6986 95.0334 44.8351 94.9931C44.8899 94.9902 44.9446 94.9931 44.9955 95.0027C45.2684 94.6126 45.5902 94.1476 46.0004 93.5251C46.2281 93.1773 46.4452 92.8555 46.6499 92.5577C46.5576 92.4155 46.5 92.2454 46.4798 92.0658Z" fill="white"/>
<path d="M42.4851 96.7027C42.388 97.5673 41.4206 99.8067 39.9104 101.939C38.6461 103.721 37.8785 104.153 37.7257 104.168C37.1157 104.084 36.5133 102.574 36.0358 101.077C35.8437 100.47 35.6708 99.8644 35.5257 99.3571C35.1981 98.2177 35.1385 96.6902 35.1962 95.7305C36.471 96.4375 38.7104 96.6278 41.8548 96.6403H41.8644C42.072 96.6623 42.2775 96.6854 42.4851 96.7027Z" fill="white"/>
<path d="M40.2474 89.5836C40.2474 89.5865 40.2474 89.5865 40.2474 89.5884C40.232 89.6086 40.2195 89.6307 40.2051 89.6508C39.6652 90.4453 39.1205 91.236 38.5758 92.0276C38.2933 92.435 38.0138 92.8423 37.7361 93.2525C37.5834 93.4754 37.3787 93.7204 37.201 93.9846C36.7533 93.8799 36.3066 93.7771 35.8637 93.6522C35.5015 93.5475 35.1441 93.4351 34.7935 93.2948C34.7233 93.2698 34.6561 93.242 34.5908 93.2103C34.5331 93.093 34.4505 92.9874 34.3506 92.9076C34.3535 92.9047 34.3535 92.898 34.3554 92.8951C34.4832 92.6348 34.6129 92.3725 34.7406 92.1131C34.9827 91.6357 35.2258 91.1611 35.4957 90.7009C35.9761 89.8708 36.5554 89.0264 37.3682 88.4884C37.4085 88.4586 37.4527 88.4307 37.4959 88.4038C37.811 88.2059 38.1262 88.0666 38.5133 88.0186C38.5585 88.0138 38.8304 88.0157 38.9581 88.0263C38.9802 88.0263 38.9985 88.0292 39.011 88.0292H39.0138C39.0235 88.0321 39.0417 88.0369 39.0686 88.0465C39.1637 88.0763 39.2588 88.0964 39.3539 88.1291C39.3866 88.1445 39.4164 88.1589 39.449 88.1762C39.5317 88.2261 39.6162 88.2713 39.694 88.3337C39.5691 88.2386 39.8669 88.546 39.8669 88.5239C40.1071 88.8563 40.1801 89.134 40.2474 89.5836Z" fill="white"/>
<path d="M35.9703 87.3245C34.9702 88.1468 34.243 89.242 33.6358 90.3814C33.2957 91.0136 32.9883 91.6582 32.6684 92.3009C32.6357 92.3662 32.603 92.4287 32.5656 92.4931C32.263 92.4277 31.9603 92.3403 31.6654 92.2462C31.3503 92.1462 31.0381 92.031 30.7383 91.8917C30.6009 91.8263 30.4636 91.7591 30.3262 91.687C30.6259 91.1192 30.9833 90.5745 31.3234 90.0452C31.8037 89.2978 32.3235 88.5628 32.8884 87.873C33.1007 87.6108 33.3255 87.3235 33.6233 87.1506C33.9279 86.9709 34.2958 87.0132 34.6455 87.0334C35.0154 87.0564 35.4131 87.066 35.7628 87.2063C35.8349 87.237 35.9127 87.2851 35.9703 87.3245Z" fill="white"/>
<path d="M34.3824 100.744C34.3324 100.786 34.2901 100.832 34.2527 100.884C34.2181 100.894 34.1825 100.902 34.1604 100.907C33.9203 100.932 33.6753 100.95 33.4332 100.965C32.9682 100.995 32.4955 101.015 32.0257 100.998C31.7635 100.988 31.5262 100.948 31.4186 100.781C31.2457 100.518 31.1938 100.061 31.1313 99.7133C30.8239 98.0061 30.7836 96.2269 31.0016 94.4995C31.8941 94.8194 32.8116 95.0673 33.7531 95.222C33.5504 96.7793 33.8953 99.0657 34.098 99.7661C34.1921 100.092 34.2872 100.421 34.3824 100.744Z" fill="white"/>
<path d="M31.5117 86.7589C30.722 87.7283 30.0024 88.761 29.3568 89.8303C29.0965 90.2655 28.8015 90.7151 28.5844 91.1801C28.2722 91.0927 27.9897 90.9678 27.69 90.7824C27.4604 90.6402 27.2375 90.4826 27.0204 90.3174C26.9656 90.2722 26.8157 90.155 26.7226 90.0801C26.7005 90.0628 26.6803 90.0455 26.6572 90.033C26.7293 89.8284 26.8619 89.6007 26.9349 89.4479C27.1001 89.0858 27.2846 88.7303 27.4777 88.3835C27.8447 87.7341 28.2549 87.099 28.7199 86.514C28.8928 86.2988 29.0571 86.0211 29.3251 85.9414C29.5701 85.8712 29.8929 85.9039 30.0898 85.9385C30.6749 86.0519 31.1322 86.317 31.5117 86.7589Z" fill="white"/>
<path d="M25.4213 90.9849C25.4342 90.9344 25.499 90.9278 25.5294 90.9702C25.736 91.2579 26.0197 91.5088 26.3236 91.7457C26.4598 91.8492 26.5952 91.9527 26.7328 92.0503C26.7542 92.0654 26.7643 92.092 26.7582 92.1174C26.4401 93.4371 26.2204 94.8356 26.2131 96.2164C26.2127 96.2927 26.0976 96.309 26.0798 96.2349C25.6859 94.5868 25.1741 91.9526 25.4213 90.9849Z" fill="white"/>
<path d="M29.2941 93.9126C29.1337 95.0924 29.0568 96.275 29.1087 97.4643C29.1337 98.1166 29.2038 98.7642 29.2912 99.4088C29.2912 99.4136 29.2912 99.4184 29.2941 99.4213V99.4242C29.1538 99.3915 29.0069 99.3867 28.857 99.4088C28.8868 99.3992 28.8099 99.404 28.7773 99.404H28.7676C28.7456 99.4011 28.7129 99.3992 28.7023 99.3963C28.5371 99.356 28.5227 99.3387 28.392 99.256C28.222 99.1465 28.0423 98.9457 27.9222 98.7411C27.6052 98.1916 27.5351 97.5239 27.5101 96.9014C27.463 95.6793 27.5677 94.4592 27.7954 93.2622C27.9904 93.3419 28.1605 93.415 28.4429 93.537C28.7225 93.659 29.0126 93.7791 29.2951 93.9097V93.9126H29.2941Z" fill="white"/>
<g opacity="0.8" filter="url(#filter0_i_935_3316)">
<path d="M60.4868 155.643C55.1036 155.643 49.998 155.303 45.7137 154.969L44.5326 154.877L43.3531 154.713C42.8373 154.641 42.1358 154.565 41.459 154.491C37.3374 154.043 29.6725 153.208 21.2108 149.234L19.8966 148.615L18.6711 147.928C2.40808 138.813 -3.67823 125.094 -6.95548 117.719C-7.16411 117.25 -7.41709 116.68 -7.65529 116.155C-9.30951 112.769 -10.3559 109.717 -11.243 106.923L-11.4401 106.298L-11.6044 105.692C-13.965 97.3027 -14.5613 90.0583 -13.4804 82.8943C-12.3962 75.7008 -9.73171 69.1562 -5.1025 62.306L-2.70247 58.3865C-2.21493 57.5948 -1.8707 56.7234 -1.68561 55.8123C0.144391 46.7428 4.29721 40.3181 6.33748 37.2495C6.89908 33.5354 7.82514 29.8857 9.1022 26.3532L9.29275 25.8177L9.49644 25.2953C9.5293 25.2033 9.57202 25.0736 9.65087 24.837C10.5675 22.0756 12.7162 15.6147 18.2194 8.83023L20.2859 6.32671L22.3919 4.42444C27.8013 -0.490902 34.2454 -4.12871 41.2488 -6.22045C45.1586 -7.38648 49.1895 -8.09916 53.2621 -8.34449L53.6563 -8.37407L54.2493 -8.40198C54.9541 -8.43484 55.6555 -8.45127 56.3405 -8.45127C58.8818 -8.456 61.4187 -8.2422 63.9234 -7.81225C65.4883 -7.54886 67.0958 -7.73278 68.5608 -8.34285C72.9032 -10.1542 77.4673 -11.3795 82.133 -11.9864C82.5224 -12.0423 82.8624 -12.085 83.1302 -12.1195C83.8661 -12.2115 85.0357 -12.3495 86.4485 -12.4842C88.9126 -12.7191 92.6908 -13 96.7862 -13C104.785 -13 111.669 -11.9634 117.833 -9.83281L118.357 -9.65047L118.869 -9.45827C132.471 -4.31817 139.395 2.86221 144.374 9.19658L144.611 9.49883L145.296 10.1083C149.794 13.6273 153.62 17.9304 156.588 22.8099L157.516 24.3376L158.3 25.9393C164.953 39.5197 162.839 52.0587 162.042 56.77L161.999 57.0213C161.426 60.497 160.515 63.9082 159.277 67.2063C158.822 70.386 158.073 73.5167 157.04 76.5583C155.274 81.9647 152.668 87.0597 149.319 91.6567C147.39 94.3845 145.213 96.9274 142.814 99.2526C141.966 100.072 141.416 101.152 141.252 102.32C141.148 103.039 141.03 103.75 140.895 104.455C138.945 114.916 134.37 122.197 132.502 125.096L126.856 133.205C120.057 141.676 111.99 147.263 102.227 150.266L99.8614 151.007L97.3069 151.452C94.3844 151.968 91.4219 152.224 88.4543 152.218C88.0452 152.218 87.6329 152.218 87.1762 152.206H87.0448L86.5405 152.237L86 152.257H85.9852C84.854 152.295 83.7324 152.48 82.6488 152.807C76.3424 154.736 69.2097 155.643 60.4868 155.643Z" stroke="url(#paint1_linear_935_3316)" stroke-width="1.01688" stroke-miterlimit="10"/>
<path d="M60.4868 150.072C55.3286 150.072 50.3808 149.744 46.223 149.415L45.2374 149.339L44.2517 149.203C43.6373 149.118 42.8866 149.039 42.1622 148.957C38.1589 148.521 31.4664 147.794 23.9952 144.29L22.8979 143.774L21.8777 143.201C7.52686 135.151 2.21756 123.2 -0.956191 116.058C-1.18289 115.549 -1.46049 114.923 -1.72004 114.354C-3.1985 111.322 -4.16771 108.521 -4.98579 105.943L-5.15006 105.424L-5.29298 104.918C-7.39239 97.4571 -7.93449 91.0899 -6.99813 84.8771C-6.06178 78.6643 -3.70282 72.923 0.412216 66.8711L3.4874 61.8493C4.03121 60.9596 4.40445 59.9763 4.58802 58.9499C6.11904 50.4192 10.1487 44.3707 11.9803 41.6174L12.2119 41.2692L12.2974 41.1312C12.3351 41.0474 12.3713 40.9669 12.4058 40.8798C12.5175 40.5168 12.6275 40.1653 12.7343 39.8301C13.216 36.3306 14.0667 32.8918 15.2723 29.5713L15.4366 29.1245L15.6124 28.676C15.6682 28.5331 15.7208 28.3787 15.8752 27.9154C16.7475 25.2871 18.5627 19.8299 23.3119 13.9752L25.0351 11.889L26.7846 10.307C31.4748 6.0453 37.0624 2.89141 43.1347 1.07816C46.5821 0.054734 50.1355 -0.569767 53.7253 -0.783066L54.0539 -0.809335L54.5467 -0.832336C55.1463 -0.860262 55.7443 -0.873404 56.3274 -0.873404C58.9026 -0.877984 61.4715 -1.61929 63.9941 -1.10133C65.9408 -0.698675 67.9646 -0.914042 69.783 -1.71735C73.1802 -3.21552 77.7535 -3.81389 82.9889 -4.46605C83.3618 -4.52026 83.6871 -4.56134 83.9401 -4.59255C84.6284 -4.67961 85.729 -4.8094 87.0612 -4.93589C89.3775 -5.15766 92.9422 -5.42871 96.7747 -5.42871C104.031 -5.42871 110.212 -4.51041 115.674 -2.62127L116.111 -2.47015L116.538 -2.30588C128.594 2.24941 134.553 8.34724 139.195 14.2594C139.453 14.588 139.717 14.9247 139.816 15.0414L139.926 15.1399L140.806 15.9235L140.925 16.0451C144.935 19.1173 148.339 22.9092 150.962 27.2271L151.734 28.5002L152.391 29.8341C158.114 41.5156 156.32 52.1424 155.555 56.6813L155.514 56.9228C154.971 60.2201 154.082 63.4511 152.862 66.5623C152.478 69.5902 151.789 72.5715 150.806 75.461C149.244 80.245 146.94 84.7536 143.977 88.8213C141.971 91.6726 139.652 94.29 137.063 96.6243C135.861 97.703 135.103 99.1893 134.935 100.795C134.81 101.978 134.641 103.128 134.428 104.256C132.708 113.49 128.688 119.877 126.848 122.737L122.275 129.385C116.197 137.195 108.995 142.302 100.27 144.991L98.2991 145.609L96.1636 145.978C93.6147 146.428 91.031 146.652 88.4428 146.647C88.0666 146.647 87.6822 146.647 87.2682 146.637H87.1516H86.9068C86.9068 146.637 86.8247 146.637 86.6571 146.649L86.2054 146.677L85.7504 146.693L84.8419 146.728C83.6411 146.77 82.4517 146.977 81.3068 147.342C75.4981 149.197 68.7859 150.072 60.4868 150.072Z" stroke="url(#paint2_linear_935_3316)" stroke-width="1.01688" stroke-miterlimit="10"/>
<path d="M60.4868 143.501C55.5586 143.501 50.7651 143.181 46.7305 142.867L45.9437 142.806L45.1585 142.698C44.4471 142.599 43.6471 142.512 42.8734 142.427C39.0475 142.011 33.27 141.382 26.7911 138.343L25.9122 137.931L25.0909 137.472C12.6455 130.496 8.07546 120.204 5.04955 113.393C4.79165 112.81 4.49924 112.153 4.22819 111.544C2.91401 108.871 2.03679 106.321 1.28934 103.961L1.15792 103.547L1.04293 103.141C-0.79528 96.6095 -1.28152 91.1179 -0.489725 85.8628C0.31357 80.5337 2.4064 75.5661 6.09268 70.2273L6.5313 69.5932L7.00605 68.9837C7.30503 68.6026 7.59249 68.2264 7.87504 67.8584L9.72476 64.4662C10.3314 63.3575 10.741 62.1519 10.9354 60.9031C12.1116 53.2924 15.7782 47.7941 17.4702 45.2578L17.4785 45.2446C17.5754 45.1001 17.7002 44.9161 17.7643 44.8142L18.1257 44.2376C18.267 43.9288 18.4542 43.5181 18.6185 43.0877C18.7828 42.5735 18.9783 41.9378 19.1918 41.2807C19.5928 38.0386 20.361 34.8526 21.4818 31.7841L21.6099 31.426L21.7496 31.0646C21.8678 30.764 21.9549 30.5028 22.1257 29.9886C22.9356 27.5557 24.437 23.0398 28.4305 18.1133L29.8121 16.4426L31.2067 15.1827C35.1769 11.5749 39.9066 8.90495 45.0467 7.36984C48.0302 6.4844 51.1062 5.94749 54.2132 5.76983L54.476 5.75011L54.8752 5.73205C55.368 5.70905 55.8608 5.69756 56.3536 5.69756C59.0251 5.69388 61.6861 6.03229 64.2716 6.70455C66.51 7.27082 68.8769 7.02097 70.9476 5.99981C74.261 4.39158 78.6931 2.68477 83.8858 2.04739C84.2423 1.99647 84.5429 1.95705 84.7876 1.92583C85.4332 1.84534 86.4616 1.72378 87.7101 1.59729C89.8834 1.38866 93.2247 1.14062 96.7993 1.14062C103.313 1.14062 108.791 1.94062 113.555 3.58663L113.905 3.70821L114.247 3.83633C125.32 8.022 130.278 13.5038 134.055 18.3121C134.888 19.3716 135.014 19.5359 135.586 20.0435L136.291 20.671L136.565 20.9519C138.387 22.363 142.112 25.269 145.373 30.644L145.992 31.6625L146.515 32.7287C151.308 42.5111 149.817 51.3457 149.101 55.5922L149.061 55.8271C148.548 58.9407 147.681 61.9853 146.475 64.9015L146.443 65.1693C146.124 67.959 145.508 70.7065 144.604 73.3649C143.248 77.5277 141.244 81.4505 138.666 84.9888C136.509 88.0806 133.916 90.8444 130.968 93.1943C130.267 93.7503 129.692 94.4501 129.284 95.2466C128.875 96.0431 128.642 96.9178 128.599 97.812C128.519 99.5673 128.317 101.315 127.995 103.042C126.506 111.049 123.011 116.6 121.227 119.371L117.682 124.61C112.338 131.744 106.004 136.362 98.3484 138.709L96.773 139.202L95.0695 139.498C92.8911 139.883 90.6828 140.074 88.4707 140.07C88.1273 140.07 87.7774 140.07 87.3996 140.06H87.3125H86.9347C86.8706 140.06 86.6752 140.06 86.2776 140.084L85.9162 140.107L85.5663 140.12L83.7396 140.188C82.4601 140.232 81.1936 140.46 79.9794 140.866C74.6586 142.658 68.3817 143.501 60.4868 143.501Z" stroke="url(#paint3_linear_935_3316)" stroke-width="0.953329" stroke-miterlimit="10"/>
<path d="M60.4858 136.93C55.7761 136.93 51.1452 136.619 47.2388 136.316L46.6491 136.27L46.0594 136.189C45.2528 136.077 44.4035 135.984 43.5805 135.895C39.9845 135.502 35.0678 134.969 29.5795 132.394L28.9224 132.084L28.3097 131.741C17.7699 125.827 13.8931 117.102 11.061 110.727C10.767 110.07 10.4614 109.378 10.1591 108.716C8.95502 106.295 8.18786 103.97 7.55049 101.981L7.45193 101.67L7.3665 101.367C4.28474 90.4144 5.44287 82.7314 11.498 73.9658L11.8265 73.4894L12.183 73.0327C12.5854 72.5185 12.9616 72.0241 13.3329 71.5542C13.8914 70.8216 14.4565 70.0758 15.0726 69.3086C15.4548 68.8306 15.7633 68.2979 15.9875 67.7283L16.6824 65.9542C16.9769 65.1998 17.1617 64.407 17.2311 63.6002C17.834 56.5742 21.2508 51.4522 22.9429 48.9142L22.9527 48.901C23.0759 48.7137 23.2632 48.4345 23.3256 48.3343L23.7215 47.7018L23.8431 47.5375C24.0534 47.1121 24.4657 46.2135 24.8287 45.2722C25.0242 44.6283 25.333 43.6394 25.6353 42.7408C25.6353 42.7063 25.6353 42.6685 25.6484 42.6291C25.9723 39.685 26.6507 36.7909 27.669 34.0097L27.7659 33.7403L27.871 33.4692C28.055 33.001 28.1848 32.6101 28.3639 32.0696C29.0867 29.8979 30.2957 26.2626 33.5352 22.2674L34.5717 21.0124L35.6116 20.0728C43.2634 13.1306 51.8254 12.531 54.687 12.3388L54.8841 12.324L55.1864 12.3092C55.5757 12.2911 55.965 12.2829 56.3461 12.2829C59.7435 12.2949 63.1045 12.9823 66.2337 14.3051C66.788 14.5354 67.3865 14.6401 67.9861 14.6117C68.5856 14.5833 69.1715 14.4225 69.7015 14.1408H69.7179C72.6272 12.4538 77.9562 9.395 84.7506 8.57692C85.0791 8.52763 85.3814 8.48986 85.6031 8.46193C86.2011 8.38637 87.1555 8.27467 88.3284 8.16132C90.3589 7.96748 93.4768 7.73584 96.7918 7.73584C102.563 7.73584 107.34 8.41923 111.397 9.82212L111.66 9.91246L111.916 10.0094C121.406 13.5955 125.499 18.0949 128.876 22.3956C129.784 23.5455 130.19 24.0794 131.207 24.9763L131.736 25.4478L132.16 25.8831L132.488 26.1426C134.097 27.3878 137.088 29.7057 139.743 34.0721L140.208 34.836L140.6 35.636C144.461 43.5211 143.253 50.6719 142.604 54.5159L142.566 54.7442C142.109 57.5385 141.314 60.2669 140.198 62.8691L140.104 63.0926C140.094 63.1402 140.081 63.2108 140.061 63.3143C140.01 63.5788 139.981 63.7891 139.946 64.0568L139.907 64.3591C139.644 66.7157 139.125 69.0368 138.361 71.2816C137.211 74.8222 135.509 78.1588 133.316 81.1675C131.148 84.246 128.717 86.7528 125.988 88.7372C124.79 89.6122 123.812 90.7535 123.131 92.0712C122.449 93.3888 122.084 94.8467 122.062 96.3299C122.039 98.1796 121.858 100.024 121.521 101.843C120.263 108.626 117.369 113.219 115.567 116.018L112.991 119.88C108.378 126.325 102.936 130.44 96.386 132.445L96.0394 132.554C95.4836 132.728 94.9167 132.866 94.3425 132.964L93.9269 133.037C92.12 133.357 90.2883 133.516 88.4533 133.511C88.1428 133.511 87.8274 133.511 87.4857 133.503H87.4299C87.2738 133.503 87.1013 133.503 86.9173 133.503C86.7892 133.503 86.4508 133.503 85.8397 133.541L85.5686 133.557L85.3042 133.567C84.4253 133.6 83.3329 133.638 82.3587 133.681C81.0236 133.736 79.7047 133.995 78.4474 134.448C73.7328 136.132 67.9635 136.93 60.4858 136.93Z" stroke="url(#paint4_linear_935_3316)" stroke-width="0.889774" stroke-miterlimit="10"/>
<path d="M60.4868 130.359C56.0005 130.359 51.5306 130.058 47.749 129.764L47.3548 129.734L46.9622 129.679C46.057 129.554 45.1552 129.455 44.2862 129.361C40.981 129.002 36.8676 128.553 32.3698 126.444L31.9296 126.237L31.5222 126.009C22.888 121.168 19.6617 113.9 17.0661 108.06C16.7475 107.341 16.4091 106.598 16.0805 105.875C15.0637 103.847 14.3753 101.769 13.8102 99.9895L13.7445 99.7841L13.687 99.5821C11.1441 90.5471 11.9835 84.8123 16.9002 77.6943L17.1187 77.3773L17.3569 77.0734C17.7857 76.5247 18.1783 76.0122 18.5528 75.5177C19.8358 73.8356 21.0695 72.2158 22.9143 70.2462C23.3188 69.814 23.5609 69.255 23.5993 68.6643L23.7389 66.5386L23.6847 65.8421L23.7093 65.1193C23.9015 59.2892 26.8305 54.9031 28.3977 52.5474C28.5784 52.2747 28.7673 51.9938 28.879 51.8148L29.1435 51.3942L29.3883 51.0657C29.6807 50.5877 30.4495 48.9581 31.031 47.3942C31.2314 46.7371 31.6191 45.4837 31.9608 44.4898C32.061 44.1728 32.0708 44.0956 32.153 43.4155C32.4201 40.9552 32.9866 38.5367 33.8401 36.2138L33.9041 36.0331L33.9747 35.8507C34.2179 35.2298 34.3871 34.7222 34.5826 34.1341C35.2019 32.2712 36.1349 29.4638 38.622 26.3968L39.3153 25.559L40.0019 24.9381C45.3622 20.0707 51.202 19.1491 55.143 18.8846L55.276 18.8731H55.4797C55.7656 18.86 56.0498 18.8534 56.329 18.8534C59.695 18.8534 63.7213 20.4682 65.8355 21.444C66.3411 21.676 66.8876 21.8057 67.4436 21.8258C67.9995 21.8458 68.5539 21.7557 69.075 21.5606C70.3904 21.0841 71.6724 20.5199 72.9124 19.8719C75.6015 18.3113 80.0631 15.7339 85.6041 15.0883C85.9096 15.0423 86.184 15.0078 86.4107 14.9782C86.9676 14.9092 87.8464 14.8139 88.9355 14.7006C90.8247 14.5199 93.7175 14.3047 96.7746 14.3047C101.801 14.3047 105.877 14.8698 109.233 16.0296L109.407 16.0903L109.572 16.1544C117.498 19.1491 120.652 22.5906 123.686 26.4527C124.671 27.6979 125.368 28.5882 126.815 29.8827L127.167 30.1965L127.495 30.525C127.791 30.8176 128.109 31.0861 128.446 31.3283C129.807 32.3813 132.087 34.1456 134.109 37.4754L134.418 37.9846L134.681 38.5185C137.611 44.4997 136.67 50.0784 136.107 53.4115L136.069 53.6382C135.695 55.9391 135.039 58.1852 134.116 60.3258V60.3422C133.86 60.8958 133.684 61.4825 133.592 62.0851C133.513 62.5057 133.463 62.8441 133.416 63.2186L133.376 63.5242C133.165 65.4468 132.745 67.3406 132.123 69.1719C131.185 72.0936 129.782 74.8449 127.968 77.3198C125.291 81.1392 122.196 83.8267 118.467 85.5335C117.561 85.9469 116.787 86.6027 116.231 87.4283C115.674 88.2539 115.356 89.2172 115.313 90.212C115.295 90.6193 115.288 90.9545 115.3 91.1417C115.484 94.0149 115.692 97.2708 115.052 100.625C114.025 106.173 111.676 109.902 109.91 112.64C109.91 112.64 101.808 123.916 94.4354 126.166L93.642 126.414L92.7894 126.564C91.3546 126.819 89.8999 126.945 88.4427 126.94C88.1667 126.94 87.8842 126.94 87.5803 126.932H87.554C87.3585 126.932 87.1466 126.932 86.9068 126.932C86.6177 126.932 86.1462 126.932 85.4135 126.983L85.2345 126.994H85.0571C82.2365 127.096 79.5703 127.191 78.8295 127.336C78.4329 127.398 78.0462 127.511 77.6795 127.674C73.507 129.503 68.0351 130.359 60.4868 130.359Z" stroke="url(#paint5_linear_935_3316)" stroke-width="0.826219" stroke-miterlimit="10"/>
<path d="M60.4866 123.788C56.2254 123.788 51.9132 123.498 48.2565 123.213L48.061 123.199L47.8655 123.171C46.8651 123.033 45.9156 122.929 44.9957 122.829C41.8843 122.491 38.6662 122.141 35.159 120.496L34.9389 120.391L34.7352 120.278C28 116.5 25.4981 110.857 23.0718 105.393C22.7268 104.618 22.3703 103.816 22.0024 103.019C21.181 101.396 20.5995 99.6551 20.0771 98.0058L20.0442 97.9039L20.0147 97.8004C17.9925 90.6085 18.5066 86.9371 22.3145 81.429L22.4246 81.2647L22.5428 81.1119C22.9896 80.5419 23.3954 80.0097 23.7864 79.4955C25.6164 77.0955 27.1983 75.0207 30.7433 71.7484L30.7532 71.7385C31.0131 71.4901 31.1956 71.1719 31.2787 70.8221C31.3618 70.4723 31.3419 70.1059 31.2214 69.7672L30.5823 67.9454C30.4539 67.3711 30.3639 66.7888 30.3129 66.2025V66.1828L30.2735 65.69L30.2867 65.3286C30.4164 61.3713 32.4978 58.2517 33.8744 56.1868C34.0896 55.8583 34.2949 55.5576 34.4543 55.3014L34.5857 55.0911L34.7335 54.8923C35.4645 53.9067 36.6522 51.1781 37.2765 49.4877C37.4407 48.967 37.8613 47.569 38.2112 46.5555C38.4603 45.7932 38.6218 45.0051 38.6925 44.2064C38.8991 42.2284 39.3527 40.2842 40.0428 38.419L40.0757 38.327L40.1118 38.2367C40.4157 37.4564 40.6293 36.8157 40.8363 36.1948C41.3866 34.5405 42.0092 32.6645 43.7423 30.5274L44.0905 30.1068L44.4306 29.7996C48.2384 26.34 52.4126 25.6435 55.6323 25.43H55.6997H55.8048C55.9855 25.43 56.1662 25.4185 56.3453 25.4185C59.478 25.4185 61.8862 26.7031 63.4796 27.554L63.8509 27.7512L63.9068 27.7807C64.3437 28.0173 64.7281 28.2243 65.0846 28.4C66.0747 28.8967 67.2125 29.0136 68.283 28.7286C70.4645 28.1421 73.8683 26.8509 76.1582 25.5926L76.2059 25.5647C78.6141 24.1684 82.2413 22.0657 86.4927 21.5991C86.7604 21.5564 87.0167 21.5252 87.2582 21.494C87.751 21.4316 88.5724 21.3297 89.5761 21.2394C91.3239 21.0751 93.9934 20.873 96.7909 20.873C101.075 20.873 104.448 21.3199 107.102 22.2365L107.189 22.2677L107.278 22.3006C113.637 24.7039 115.957 27.2189 118.541 30.5142C119.592 31.853 120.586 33.118 122.47 34.7952L122.646 34.9595L122.81 35.1237C123.32 35.6376 123.869 36.1106 124.453 36.5381C125.583 37.4137 127.132 38.6129 128.524 40.9028L128.678 41.1575L128.809 41.4252C130.809 45.5074 130.143 49.4533 129.657 52.333L129.619 52.5596C129.328 54.3764 128.808 56.1488 128.07 57.8345C127.64 58.8049 127.334 59.8261 127.16 60.8735C127.045 61.4813 126.978 61.9561 126.922 62.3963L126.882 62.7084C126.724 64.1971 126.402 65.6637 125.921 67.0814C125.192 69.3813 124.09 71.5457 122.659 73.488C120.244 76.9542 117.567 79.0914 114.01 80.2232C112.306 80.7622 110.839 81.8728 109.859 83.3674L109.576 83.8011L109.264 84.1576C108.361 85.1859 108.615 89.1712 108.771 91.5498C108.936 94.1601 109.111 96.8591 108.624 99.4004C107.822 103.745 105.961 106.678 104.295 109.257C104.295 109.257 98.1084 118.182 92.5264 119.877L92.1207 120.005L91.6935 120.079C90.6304 120.269 89.5522 120.363 88.4722 120.358C88.229 120.358 87.9793 120.358 87.7148 120.358C87.4799 120.358 87.222 120.358 86.9362 120.358C86.5567 120.358 85.9506 120.358 85.0274 120.422H84.9386H84.8499C81.1061 120.559 78.8474 120.639 77.5989 120.882C76.7586 121.031 75.9383 121.276 75.1545 121.613C71.8116 123.095 67.1429 123.788 60.4866 123.788Z" stroke="url(#paint6_linear_935_3316)" stroke-width="0.826219" stroke-miterlimit="10"/>
</g>
</g>
<path d="M166 118H179.911L184.415 98.5251H216.873L221.377 118H235.685L213.561 26.5875H188.124L166 118ZM187.197 86.6017L198.458 38.3783H202.83L214.091 86.6017H187.197Z" fill="white"/>
<path d="M244.261 143.171H256.317V119.722V111.641C263.058 114.546 269.01 119.325 276.587 119.325C293.412 119.325 303.746 106.871 303.746 83.4221C303.746 59.9729 293.412 47.5196 276.322 47.5196C268.439 47.5196 262.642 52.5214 255.92 55.9984V48.8444H244.261V143.171ZM257.245 92.5634V74.2809C257.245 64.6097 262.809 59.4429 272.48 59.4429C284.403 59.4429 289.835 67.1269 289.835 83.4221C289.835 99.7174 284.403 107.401 272.48 107.401C262.809 107.401 257.245 102.235 257.245 92.5634Z" fill="white"/>
<path d="M342.628 119.325C359.056 119.325 369.92 110.846 371.377 97.7302H358.924C357.599 105.017 351.24 108.196 343.026 108.196C330.837 108.196 325.141 101.175 324.611 85.4094H371.642C374.159 59.3105 363.295 47.5196 343.026 47.5196C322.491 47.5196 311.098 59.9729 311.098 83.4222C311.098 106.871 322.359 119.325 342.628 119.325ZM325.008 75.6057C326.598 64.0798 332.295 58.3831 342.761 58.3831C353.757 58.3831 359.056 64.4773 359.056 75.6057H325.008Z" fill="white"/>
<path d="M415.651 120.12C436.583 120.12 447.182 108.196 448.507 85.9393H434.861C433.934 100.512 427.839 107.401 415.651 107.401C401.343 107.401 395.514 97.4652 395.514 72.2937C395.514 47.6521 401.608 37.186 415.651 37.186C427.574 37.186 433.669 44.4725 434.596 58.5156H448.109C446.652 36.3911 436.583 24.4678 415.651 24.4678C392.202 24.4678 381.471 39.4382 381.471 72.2937C381.471 105.149 392.202 120.12 415.651 120.12Z" fill="white"/>
<path d="M487.144 119.325C507.281 119.325 518.409 106.871 518.409 83.4222C518.409 59.9729 507.281 47.5196 487.144 47.5196C467.007 47.5196 455.878 59.9729 455.878 83.4222C455.878 106.871 467.007 119.325 487.144 119.325ZM469.789 83.4222C469.789 66.7295 475.22 59.178 487.144 59.178C499.067 59.178 504.499 66.7295 504.499 83.4222C504.499 100.115 499.067 107.666 487.144 107.666C475.22 107.666 469.789 100.115 469.789 83.4222Z" fill="white"/>
<path d="M532.589 118H545.573V106.606V48.8444H522.248V60.2378H532.589V106.606V118Z" fill="white"/>
<path d="M556.546 118H569.529V74.4134C569.529 64.8747 575.093 59.7079 585.559 59.7079C595.628 59.7079 600.265 64.3448 600.265 74.4134V118H613.248V70.9689C613.248 55.4685 605.829 47.5196 590.461 47.5196C581.697 47.5196 575.638 52.1533 568.204 55.9984V48.8444H556.546V118Z" fill="white"/>
<rect x="530" y="25" width="14" height="13" fill="white"/>
<defs>
<filter id="filter0_i_935_3316" x="-14.5088" y="-13.5083" width="178.271" height="170.041" filterUnits="userSpaceOnUse" color-interpolation-filters="sRGB">




<feGaussianBlur stdDeviation="0.317776"/>



</filter>
<radialGradient id="paint0_radial_935_3316" cx="0" cy="0" r="1" gradientUnits="userSpaceOnUse" gradientTransform="translate(73.5 81.2023) rotate(90) scale(82.5756)">
<stop offset="0.166667" stop-color="#073183"/>
<stop offset="1" stop-color="#0054F9"/>
</radialGradient>
<linearGradient id="paint1_linear_935_3316" x1="-14" y1="-13" x2="154.446" y2="163.793" gradientUnits="userSpaceOnUse">
<stop offset="0.205697" stop-color="#89D0FF"/>
<stop offset="0.398413" stop-color="#EBBF9A"/>
<stop offset="0.601546" stop-color="#EB8280"/>
<stop offset="0.841139" stop-color="#A281FF"/>
</linearGradient>
<linearGradient id="paint2_linear_935_3316" x1="-7.44043" y1="-5.42871" x2="147.847" y2="158.221" gradientUnits="userSpaceOnUse">
<stop offset="0.205697" stop-color="#89D0FF"/>
<stop offset="0.398413" stop-color="#EBBF9A"/>
<stop offset="0.601546" stop-color="#EB80DA"/>
<stop offset="0.841139" stop-color="#A281FF"/>
</linearGradient>
<linearGradient id="paint3_linear_935_3316" x1="-0.855469" y1="1.14062" x2="141.272" y2="151.644" gradientUnits="userSpaceOnUse">
<stop offset="0.205697" stop-color="#89D0FF"/>
<stop offset="0.398413" stop-color="#EBBF9A"/>
<stop offset="0.601546" stop-color="#EB8280"/>
<stop offset="0.841139" stop-color="#A281FF"/>
</linearGradient>
<linearGradient id="paint4_linear_935_3316" x1="5.7168" y1="7.73584" x2="134.655" y2="145.054" gradientUnits="userSpaceOnUse">
<stop offset="0.205697" stop-color="#89D0FF"/>
<stop offset="0.398413" stop-color="#EBBF9A"/>
<stop offset="0.601546" stop-color="#EB80E7"/>
<stop offset="0.841139" stop-color="#A281FF"/>
</linearGradient>
<linearGradient id="paint5_linear_935_3316" x1="12.2881" y1="14.3047" x2="128.061" y2="138.426" gradientUnits="userSpaceOnUse">
<stop offset="0.205697" stop-color="#89D0FF"/>
<stop offset="0.398413" stop-color="#EBBF9A"/>
<stop offset="0.601546" stop-color="#EB80D3"/>
<stop offset="0.841139" stop-color="#A281FF"/>
</linearGradient>
<linearGradient id="paint6_linear_935_3316" x1="18.8496" y1="20.873" x2="121.449" y2="131.848" gradientUnits="userSpaceOnUse">
<stop offset="0.205697" stop-color="#89D0FF"/>
<stop offset="0.398413" stop-color="#EBBF9A"/>
<stop offset="0.601546" stop-color="#A280EB"/>
<stop offset="0.841139" stop-color="#A281FF"/>
</linearGradient>
<clipPath id="clip0_935_3316">
<rect width="147" height="147" rx="73.5" fill="white"/>
</clipPath>
</defs>
</svg>
